<svg xmlns="http://www.w3.org/2000/svg" xmlns:xlink="http://www.w3.org/1999/xlink" viewBox="0 0 60.19 19.92"><defs><style>.cls-1,.cls-3{fill:#f2f2f2;}.cls-2{fill:url(#linear-gradient);}.cls-3{font-size:6.82px;font-family:FuturaBT-MediumCondensed, Futura MdCn BT;}.cls-4{letter-spacing:-0.04em;}.cls-5{fill:none;stroke:#fff;stroke-miterlimit:10;stroke-width:0.5px;}</style><linearGradient id="linear-gradient" x1="0.22" y1="16.82" x2="33.22" y2="16.82" gradientUnits="userSpaceOnUse"><stop offset="0" stop-color="#f3565f" stop-opacity="0"/><stop offset="1" stop-color="#f2f2f2"/></linearGradient></defs><title>smtve-logo</title><g id="Layer_2" data-name="Layer 2"><g id="Layer_1-2" data-name="Layer 1"><path class="cls-1" d="M6.36,20.28a7.14,7.14,0,0,1-4.49-1.15A4,4,0,0,1,.43,15.86v-.07h4.2v.31a.93.93,0,0,0,.12.52.76.76,0,0,0,.49.25,6.25,6.25,0,0,0,1.12.07,6.67,6.67,0,0,0,.91,0,.58.58,0,0,0,.37-.18.63.63,0,0,0,.09-.35A.5.5,0,0,0,7.54,16a3.2,3.2,0,0,0-1-.28l-2.36-.43a8.07,8.07,0,0,1-2.08-.67A3,3,0,0,1,.83,13.38a3.79,3.79,0,0,1-.45-2A3.51,3.51,0,0,1,1.76,8.59,6.43,6.43,0,0,1,5.88,7.46a8.37,8.37,0,0,1,2.84.46,4.4,4.4,0,0,1,2,1.37,3.58,3.58,0,0,1,.73,2.28V12H7.22v-.21a1.18,1.18,0,0,0-.12-.59.66.66,0,0,0-.44-.29,4.2,4.2,0,0,0-.9-.08,2.12,2.12,0,0,0-1,.15.5.5,0,0,0-.2.42.53.53,0,0,0,.15.39,2,2,0,0,0,.76.26l2.76.58a7.3,7.3,0,0,1,2.19.75,2.91,2.91,0,0,1,1.16,1.18,3.88,3.88,0,0,1,.34,1.72,3.49,3.49,0,0,1-1.41,2.86A6.54,6.54,0,0,1,6.36,20.28Z" transform="translate(-0.38 -6.68)"/><path class="cls-1" d="M17.3,20H12.82V7.7H17v3.39l.28.12Zm8.12,0H20.9v-7a2.15,2.15,0,0,0-.32-1.37,1.93,1.93,0,0,0-1.43-.38,2.19,2.19,0,0,0-1.45.35A1.74,1.74,0,0,0,17.3,13l-.45.05-.27-3.48h.65a3.52,3.52,0,0,1,.9-1.17,4,4,0,0,1,1.31-.71A5.12,5.12,0,0,1,21,7.46a4.61,4.61,0,0,1,2.57.64A3.56,3.56,0,0,1,25,9.8a6.21,6.21,0,0,1,.44,2.34Zm8.11,0H29v-7a2.14,2.14,0,0,0-.33-1.37,1.91,1.91,0,0,0-1.43-.38,2.21,2.21,0,0,0-1.45.35A1.74,1.74,0,0,0,25.42,13l-.46.05L24.7,9.58h.4a4.48,4.48,0,0,1,1-1.17,4.3,4.3,0,0,1,1.36-.71,5.5,5.5,0,0,1,1.66-.24,4.6,4.6,0,0,1,2.56.64,3.64,3.64,0,0,1,1.4,1.7,6.4,6.4,0,0,1,.43,2.34Z" transform="translate(-0.38 -6.68)"/><rect class="cls-2" x="0.22" y="15.46" width="33" height="2.71"/><text class="cls-3" transform="translate(37.6 5.84)">The <tspan class="cls-4" x="0" y="6.24">V</tspan><tspan x="2.58" y="6.24">alentine</tspan><tspan x="0" y="12.47">Experience</tspan></text><line class="cls-5" x1="35.85" y1="0.8" x2="35.85" y2="18.17"/></g></g></svg>