<?xml version="1.0" encoding="utf-8"?>
<!-- Generator: Adobe Illustrator 22.1.0, SVG Export Plug-In . SVG Version: 6.00 Build 0)  -->
<svg version="1.1" id="Layer_1" xmlns="http://www.w3.org/2000/svg" xmlns:xlink="http://www.w3.org/1999/xlink" x="0px" y="0px"
	 viewBox="0 0 60.2 19.9" style="enable-background:new 0 0 60.2 19.9;" xml:space="preserve">
<style type="text/css">
	.st0{fill:#F2F2F2;}
	.st1{fill:url(#SVGID_1_);}
	.st2{enable-background:new    ;}
	.st3{fill:none;stroke:#FFFFFF;stroke-width:0.5;stroke-miterlimit:10;}
</style>
<title>smtve-logo</title>
<g id="Layer_2_1_">
	<g id="Layer_1-2">
		<path class="st0" d="M6,13.6c-1.6,0.1-3.2-0.3-4.5-1.1c-1-0.8-1.5-2-1.4-3.3V9.1h4.2v0.3c0,0.2,0,0.4,0.1,0.5
			c0.1,0.1,0.3,0.2,0.5,0.3c0.4,0.1,0.7,0.1,1.1,0.1c0.3,0,0.6,0,0.9,0c0.1,0,0.3-0.1,0.4-0.2C7.3,10,7.4,9.9,7.3,9.7
			c0-0.2-0.1-0.3-0.2-0.4C6.8,9.2,6.5,9.1,6.2,9L3.8,8.6C3.1,8.5,2.4,8.3,1.7,7.9c-0.5-0.3-1-0.7-1.3-1.2C0.1,6.1,0,5.4,0,4.7
			c0-1.1,0.5-2.1,1.4-2.8C2.6,1.1,4,0.7,5.5,0.8c1,0,1.9,0.1,2.8,0.5c0.8,0.3,1.5,0.7,2,1.4c0.5,0.7,0.8,1.5,0.7,2.3v0.4H6.8V5.1
			c0-0.2,0-0.4-0.1-0.6C6.6,4.4,6.5,4.3,6.3,4.2C6,4.2,5.7,4.1,5.4,4.2c-0.3,0-0.7,0-1,0.1C4.2,4.4,4.2,4.6,4.2,4.7
			c0,0.1,0,0.3,0.2,0.4c0.2,0.1,0.5,0.2,0.8,0.3L7.9,6C8.6,6.1,9.4,6.3,10,6.7c0.5,0.3,0.9,0.7,1.2,1.2c0.2,0.5,0.4,1.1,0.3,1.7
			c0,1.1-0.5,2.2-1.4,2.9C8.9,13.3,7.5,13.7,6,13.6z"/>
		<path class="st0" d="M16.9,13.3h-4.5V1h4.2v3.4l0.3,0.1L16.9,13.3z M25,13.3h-4.5v-7c0-0.5-0.1-1-0.3-1.4
			c-0.4-0.3-0.9-0.4-1.4-0.4c-0.5-0.1-1,0.1-1.5,0.4c-0.3,0.4-0.5,0.9-0.4,1.4l-0.5,0.1l-0.3-3.5h0.6c0.2-0.4,0.5-0.8,0.9-1.2
			c0.4-0.3,0.8-0.6,1.3-0.7c0.5-0.2,1-0.2,1.6-0.2c0.9,0,1.8,0.2,2.6,0.6c0.6,0.4,1.1,1,1.4,1.7c0.3,0.7,0.4,1.5,0.4,2.3L25,13.3z
			 M33.1,13.3h-4.5v-7c0-0.5-0.1-1-0.3-1.4c-0.4-0.3-0.9-0.5-1.4-0.4c-0.5-0.1-1,0.1-1.5,0.4C25.1,5.3,25,5.8,25,6.3l-0.5,0.1
			l-0.3-3.5h0.4c0.3-0.4,0.6-0.8,1-1.2c0.4-0.3,0.9-0.6,1.4-0.7c0.5-0.2,1.1-0.2,1.7-0.2c0.9,0,1.8,0.2,2.6,0.6
			c0.6,0.4,1.1,1,1.4,1.7c0.3,0.7,0.4,1.5,0.4,2.3L33.1,13.3z"/>
		
			<linearGradient id="SVGID_1_" gradientUnits="userSpaceOnUse" x1="0.22" y1="5.185" x2="33.22" y2="5.185" gradientTransform="matrix(1 0 0 -1 0 22)">
			<stop  offset="0" style="stop-color:#F3565F;stop-opacity:0"/>
			<stop  offset="1" style="stop-color:#F2F2F2"/>
		</linearGradient>
		<rect x="0.2" y="15.5" class="st1" width="33" height="2.7"/>
		<g class="st2">
			<path class="st0" d="M38.6,5.8V1.6h-0.9V1h2.5v0.6h-0.9v4.3H38.6z"/>
			<path class="st0" d="M40.6,5.8V0.7h0.6v2.2c0.1-0.1,0.2-0.2,0.3-0.3c0.1-0.1,0.3-0.1,0.4-0.1c0.2,0,0.4,0.1,0.5,0.2
				c0.1,0.1,0.2,0.3,0.2,0.6v2.5H42V3.6c0-0.2,0-0.4-0.1-0.5s-0.2-0.1-0.3-0.1c-0.1,0-0.2,0-0.3,0.1c-0.1,0.1-0.1,0.2-0.1,0.4v2.3
				H40.6z"/>
			<path class="st0" d="M45.1,4.7L45.1,4.7c0,0.4-0.1,0.7-0.3,0.9s-0.4,0.3-0.7,0.3c-0.4,0-0.6-0.1-0.8-0.4
				c-0.2-0.3-0.3-0.7-0.3-1.3c0-0.6,0.1-1,0.3-1.3s0.4-0.4,0.8-0.4c0.4,0,0.6,0.1,0.8,0.4s0.2,0.7,0.2,1.2v0.2h-1.5v0.1
				c0,0.3,0,0.6,0.1,0.7c0.1,0.2,0.2,0.2,0.4,0.2c0.1,0,0.2-0.1,0.3-0.2c0.1-0.1,0.1-0.3,0.1-0.5L45.1,4.7z M43.7,3.8h0.9V3.8
				c0-0.3,0-0.5-0.1-0.6C44.4,3.1,44.3,3,44.2,3c-0.2,0-0.3,0.1-0.3,0.2C43.7,3.4,43.7,3.6,43.7,3.8z"/>
		</g>
		<g class="st2">
			<path class="st0" d="M39.3,12.1h-0.6l-1.1-4.9h0.7l0.7,3.3l0.7-3.3h0.7L39.3,12.1z"/>
		</g>
		<g class="st2">
			<path class="st0" d="M41.9,12.1v-0.3c-0.1,0.1-0.2,0.2-0.3,0.3c-0.1,0.1-0.2,0.1-0.4,0.1c-0.3,0-0.5-0.1-0.6-0.4
				c-0.1-0.3-0.2-0.7-0.2-1.3c0-0.6,0.1-1,0.2-1.3c0.1-0.3,0.4-0.4,0.6-0.4c0.1,0,0.3,0,0.4,0.1c0.1,0.1,0.2,0.2,0.3,0.3V8.8h0.6
				v3.3H41.9z M41,10.4c0,0.4,0,0.7,0.1,0.9c0.1,0.2,0.2,0.3,0.3,0.3c0.2,0,0.3-0.1,0.3-0.3c0.1-0.2,0.1-0.5,0.1-0.9
				c0-0.4,0-0.7-0.1-0.9c-0.1-0.2-0.2-0.3-0.3-0.3s-0.3,0.1-0.3,0.3C41.1,9.7,41,10,41,10.4z"/>
			<path class="st0" d="M43.2,12.1V6.9h0.6v5.2H43.2z"/>
			<path class="st0" d="M46.4,11L46.4,11c0,0.4-0.1,0.7-0.3,0.9c-0.2,0.2-0.4,0.3-0.7,0.3c-0.4,0-0.6-0.1-0.8-0.4
				c-0.2-0.3-0.3-0.7-0.3-1.3c0-0.6,0.1-1,0.3-1.3s0.4-0.4,0.8-0.4c0.4,0,0.6,0.1,0.8,0.4s0.2,0.7,0.2,1.2v0.2H45v0.1
				c0,0.3,0,0.6,0.1,0.7c0.1,0.2,0.2,0.2,0.4,0.2c0.1,0,0.2-0.1,0.3-0.2c0.1-0.1,0.1-0.3,0.1-0.5L46.4,11z M45,10.1h0.9V10
				c0-0.3,0-0.5-0.1-0.6s-0.2-0.2-0.3-0.2c-0.2,0-0.3,0.1-0.3,0.2C45,9.6,45,9.8,45,10.1z"/>
			<path class="st0" d="M47.1,12.1V8.8h0.6v0.3c0.1-0.1,0.2-0.2,0.3-0.3c0.1-0.1,0.2-0.1,0.4-0.1c0.2,0,0.4,0.1,0.5,0.2
				C49,9.1,49,9.3,49,9.6v2.5h-0.6V9.9c0-0.2,0-0.4-0.1-0.5s-0.2-0.1-0.3-0.1c-0.1,0-0.2,0-0.3,0.1s-0.1,0.2-0.1,0.4v2.3H47.1z"/>
			<path class="st0" d="M49.8,12.1V9.3h-0.3V8.8h0.3V7.9h0.6v0.9h0.4v0.4h-0.4v2.8H49.8z"/>
			<path class="st0" d="M51.2,7.8c0-0.1,0-0.2,0.1-0.3c0.1-0.1,0.2-0.1,0.3-0.1c0.1,0,0.2,0,0.3,0.1C51.9,7.6,52,7.7,52,7.8
				c0,0.1,0,0.2-0.1,0.3c-0.1,0.1-0.2,0.1-0.3,0.1c-0.1,0-0.2,0-0.3-0.1S51.2,7.9,51.2,7.8z M51.3,12.1V8.8h0.6v3.3H51.3z"/>
			<path class="st0" d="M52.6,12.1V8.8h0.6v0.3c0.1-0.1,0.2-0.2,0.3-0.3c0.1-0.1,0.2-0.1,0.4-0.1c0.2,0,0.4,0.1,0.5,0.2
				c0.1,0.1,0.2,0.3,0.2,0.6v2.5H54V9.9c0-0.2,0-0.4-0.1-0.5s-0.2-0.1-0.3-0.1c-0.1,0-0.2,0-0.3,0.1s-0.1,0.2-0.1,0.4v2.3H52.6z"/>
			<path class="st0" d="M57.2,11L57.2,11c0,0.4-0.1,0.7-0.3,0.9c-0.2,0.2-0.4,0.3-0.7,0.3c-0.4,0-0.6-0.1-0.8-0.4
				c-0.2-0.3-0.3-0.7-0.3-1.3c0-0.6,0.1-1,0.3-1.3s0.4-0.4,0.8-0.4c0.4,0,0.6,0.1,0.8,0.4s0.2,0.7,0.2,1.2v0.2h-1.5v0.1
				c0,0.3,0,0.6,0.1,0.7c0.1,0.2,0.2,0.2,0.4,0.2c0.1,0,0.2-0.1,0.3-0.2c0.1-0.1,0.1-0.3,0.1-0.5L57.2,11z M55.8,10.1h0.9V10
				c0-0.3,0-0.5-0.1-0.6s-0.2-0.2-0.3-0.2c-0.2,0-0.3,0.1-0.3,0.2C55.8,9.6,55.8,9.8,55.8,10.1z"/>
		</g>
		<g class="st2">
			<path class="st0" d="M38,18.3v-4.9H40V14h-1.3v1.4h1.2v0.6h-1.2v1.6H40v0.6H38z"/>
			<path class="st0" d="M41,16.6L40.4,15H41l0.3,0.9l0.3-0.9h0.6l-0.6,1.5l0.7,1.7h-0.6l-0.4-1.1l-0.4,1.1h-0.6L41,16.6z"/>
			<path class="st0" d="M42.8,19.6V15h0.6v0.3c0.1-0.1,0.2-0.2,0.3-0.3C43.8,15,43.9,15,44,15c0.3,0,0.5,0.1,0.6,0.4
				c0.1,0.3,0.2,0.7,0.2,1.3c0,0.6-0.1,1-0.2,1.3c-0.1,0.3-0.3,0.4-0.6,0.4c-0.1,0-0.3,0-0.4-0.1s-0.2-0.2-0.3-0.3v1.6H42.8z
				 M43.4,16.7c0,0.4,0,0.7,0.1,0.9c0.1,0.2,0.2,0.3,0.3,0.3s0.3-0.1,0.3-0.3c0.1-0.2,0.1-0.5,0.1-0.9c0-0.4,0-0.7-0.1-0.9
				c-0.1-0.2-0.2-0.3-0.3-0.3s-0.3,0.1-0.3,0.3C43.4,16,43.4,16.3,43.4,16.7z"/>
			<path class="st0" d="M47.3,17.2L47.3,17.2c0,0.4-0.1,0.7-0.3,0.9c-0.2,0.2-0.4,0.3-0.7,0.3c-0.4,0-0.6-0.1-0.8-0.4
				c-0.2-0.3-0.3-0.7-0.3-1.3c0-0.6,0.1-1,0.3-1.3S46,15,46.3,15c0.4,0,0.6,0.1,0.8,0.4s0.2,0.7,0.2,1.2v0.2h-1.5v0.1
				c0,0.3,0,0.6,0.1,0.7c0.1,0.2,0.2,0.2,0.4,0.2c0.1,0,0.2-0.1,0.3-0.2c0.1-0.1,0.1-0.3,0.1-0.5L47.3,17.2z M45.9,16.3h0.9v-0.1
				c0-0.3,0-0.5-0.1-0.6c-0.1-0.1-0.2-0.2-0.3-0.2c-0.2,0-0.3,0.1-0.3,0.2C45.9,15.8,45.9,16,45.9,16.3z"/>
			<path class="st0" d="M48,18.3V15h0.6v0.5c0.1-0.2,0.2-0.3,0.3-0.4s0.3-0.1,0.5-0.1v0.6h-0.1c-0.2,0-0.4,0.1-0.5,0.2
				c-0.1,0.1-0.2,0.3-0.2,0.5v2H48z"/>
			<path class="st0" d="M49.7,14.1c0-0.1,0-0.2,0.1-0.3s0.2-0.1,0.3-0.1c0.1,0,0.2,0,0.3,0.1s0.1,0.2,0.1,0.3c0,0.1,0,0.2-0.1,0.3
				c-0.1,0.1-0.2,0.1-0.3,0.1c-0.1,0-0.2,0-0.3-0.1C49.8,14.3,49.7,14.2,49.7,14.1z M49.8,18.3V15h0.6v3.3H49.8z"/>
			<path class="st0" d="M53,17.2L53,17.2c0,0.4-0.1,0.7-0.3,0.9s-0.4,0.3-0.7,0.3c-0.4,0-0.6-0.1-0.8-0.4c-0.2-0.3-0.3-0.7-0.3-1.3
				c0-0.6,0.1-1,0.3-1.3S51.7,15,52,15c0.4,0,0.6,0.1,0.8,0.4s0.2,0.7,0.2,1.2v0.2h-1.5v0.1c0,0.3,0,0.6,0.1,0.7
				c0.1,0.2,0.2,0.2,0.4,0.2c0.1,0,0.2-0.1,0.3-0.2c0.1-0.1,0.1-0.3,0.1-0.5L53,17.2z M51.6,16.3h0.9v-0.1c0-0.3,0-0.5-0.1-0.6
				c-0.1-0.1-0.2-0.2-0.3-0.2c-0.2,0-0.3,0.1-0.3,0.2S51.6,16,51.6,16.3z"/>
			<path class="st0" d="M53.6,18.3V15h0.6v0.3c0.1-0.1,0.2-0.2,0.3-0.3s0.2-0.1,0.4-0.1c0.2,0,0.4,0.1,0.5,0.2
				c0.1,0.1,0.2,0.3,0.2,0.6v2.5H55v-2.2c0-0.2,0-0.4-0.1-0.5s-0.2-0.1-0.3-0.1c-0.1,0-0.2,0-0.3,0.1c-0.1,0.1-0.1,0.2-0.1,0.4v2.3
				H53.6z"/>
			<path class="st0" d="M57.6,18.3c-0.1,0-0.2,0.1-0.2,0.1c-0.1,0-0.2,0-0.2,0c-0.3,0-0.6-0.1-0.7-0.4c-0.2-0.3-0.2-0.7-0.2-1.3
				c0-0.6,0.1-1,0.2-1.3s0.4-0.4,0.7-0.4c0.1,0,0.2,0,0.3,0c0.1,0,0.2,0.1,0.3,0.1v0.6c-0.1-0.1-0.1-0.1-0.2-0.1c-0.1,0-0.1,0-0.2,0
				c-0.2,0-0.3,0.1-0.4,0.3c-0.1,0.2-0.1,0.5-0.1,0.9c0,0.4,0,0.6,0.1,0.8s0.2,0.3,0.4,0.3c0.1,0,0.1,0,0.2,0c0.1,0,0.1-0.1,0.2-0.1
				V18.3z"/>
			<path class="st0" d="M60,17.2L60,17.2c0,0.4-0.1,0.7-0.3,0.9c-0.2,0.2-0.4,0.3-0.7,0.3c-0.4,0-0.6-0.1-0.8-0.4
				c-0.2-0.3-0.3-0.7-0.3-1.3c0-0.6,0.1-1,0.3-1.3S58.6,15,59,15c0.4,0,0.6,0.1,0.8,0.4S60,16,60,16.6v0.2h-1.5v0.1
				c0,0.3,0,0.6,0.1,0.7c0.1,0.2,0.2,0.2,0.4,0.2c0.1,0,0.2-0.1,0.3-0.2c0.1-0.1,0.1-0.3,0.1-0.5L60,17.2z M58.5,16.3h0.9v-0.1
				c0-0.3,0-0.5-0.1-0.6c-0.1-0.1-0.2-0.2-0.3-0.2c-0.2,0-0.3,0.1-0.3,0.2C58.5,15.8,58.5,16,58.5,16.3z"/>
		</g>
		<line class="st3" x1="35.8" y1="0.8" x2="35.8" y2="18.2"/>
	</g>
</g>
</svg>
